<mxfile host="app.diagrams.net" modified="2023-12-04T06:52:13.739Z" agent="Mozilla/5.0 (Windows NT 10.0; Win64; x64) AppleWebKit/537.36 (KHTML, like Gecko) Chrome/119.0.0.0 Safari/537.36" etag="lbVZkCEr6PHuKSCdLjO4" version="22.1.5" type="device">
  <diagram name="Pagina-1" id="W_flvhi_6GqyKxDp2aMX">
    <mxGraphModel dx="1434" dy="782" grid="1" gridSize="10" guides="1" tooltips="1" connect="1" arrows="1" fold="1" page="1" pageScale="1" pageWidth="827" pageHeight="1169" math="0" shadow="0">
      <root>
        <mxCell id="0" />
        <mxCell id="1" parent="0" />
        <mxCell id="480iWrOcqj7Nm8mn7Ess-1" value="Lichid" style="rounded=0;whiteSpace=wrap;html=1;" vertex="1" parent="1">
          <mxGeometry x="350" y="370" width="280" height="100" as="geometry" />
        </mxCell>
        <mxCell id="480iWrOcqj7Nm8mn7Ess-2" value="Bautura" style="rounded=0;whiteSpace=wrap;html=1;" vertex="1" parent="1">
          <mxGeometry x="350" y="520" width="280" height="80" as="geometry" />
        </mxCell>
      </root>
    </mxGraphModel>
  </diagram>
</mxfile>
